# xmcd
#
# Track frame offsets: 
#        150
#        15102
#        34489
#        52066
#        68417
#        85036
#        98763
#        111500
#        126234
#        139001
#        162843
#        177441
#        191173
#        212218
#        224880
#        242460
#        255667
#        283377
#        303322
#
# Disc length: 4297 seconds
#
# Revision: 0
# Processed by: cddbd v1.4PL0 Copyright (c) Steve Scherf et al.
# Submitted via: ExactAudioCopy v0.90a11
#
DISCID=1d10c713
DTITLE=Various Artist - Living Chicago Blues Vol.3
DYEAR=1900
DGENRE=
TTITLE0=Hard Times-A.C Reed and the Sparkplugs
TTITLE1=She's Fine-A.C Reed and the Sparkplugs
TTITLE2=Moving out of the Ghetto-A.C Reed and the Sparkplugs
TTITLE3=Going to New York-A.C Reed and the Sparkplugs
TTITLE4=Big Leg Woman-Scotty and the Rib Tips
TTITLE5=Careless With Our Love-Scotty and the Rib Tips
TTITLE6=Road Block-Scotty and the Rib Tips
TTITLE7=Poison Ivy-Scotty and the Rib Tips
TTITLE8=I Dare You-Louie Lee with Carey Bell
TTITLE9=Nobody Knows My Troubles-Louie Lee with Carey Bell
TTITLE10=Sweet Little Girl-Louie Lee with Carey Bell
TTITLE11=Naptown--Louie Lee with Carey Bell
TTITLE12=Drown In My Own Tears-Lacy Gibson
TTITLE13=Crying for You Baby-Lacy Gibson
TTITLE14=Feel So Bad-Lacy Gibson
TTITLE15=Wish Me Well-The Sons of Blues
TTITLE16=Have You Ever Loved a Woman-The Sons of Blues
TTITLE17=Berlin Wall-The Sons of Blues
TTITLE18=Prisner of the Blues-The Sons of Blues
EXTD=
EXTT0=
EXTT1=
EXTT2=
EXTT3=
EXTT4=
EXTT5=
EXTT6=
EXTT7=
EXTT8=
EXTT9=
EXTT10=
EXTT11=
EXTT12=
EXTT13=
EXTT14=
EXTT15=
EXTT16=
EXTT17=
EXTT18=
PLAYORDER=
